<svg xmlns="http://www.w3.org/2000/svg" width="260" height="181.33" viewBox="0 0 260 181.33"><title>Klabin</title><path fill="#FFF" d="M123.22,0.29477,0.073932,123.3h136.78l47.895-47.871v-75.113h-32.537"/>
<g transform="matrix(1.6719825,0,0,-1.6719825,124.84631,120.37177)">
<g fill="#009E59" transform="scale(0.24,0.24)">
<path d="M-174.57,128.83l-136.26-136.19h136.27v136.2"/>
<path d="M-46.701,69.341l76.643-76.596,306.87,306.54h-340.87l-119.38-119.31v-187.18h81.077l-76.52,76.472,76.506,76.579h72.33l-76.78-76.83,0.118,0.326"/>
<path d="M-123.42-81.022h18.682v-30.296l21.703,30.296h20.933l-25.784-32.212,28.427-37.887h-23.235l-22.072,32.511v-32.511h-18.692v70.104h0.019l0.02,0.004zm69.102,5.668h17.812v-75.771h-17.817v75.767l0.005-0.001zm60.155-52.136c-5.23,0-8.998-0.574-11.302-1.704-2.307-1.119-3.451-2.954-3.451-5.451,0-1.801,0.614-3.273,1.848-4.398,1.234-1.117,2.866-1.669,4.904-1.669,3.234,0,5.872,1.078,7.929,3.254,2.048,2.161,3.079,4.999,3.079,8.486v1.482h-3.007zm19.778,3.54v-27.179h-15.438l-0.388,8.08c-2.104-2.984-4.648-5.186-7.627-6.576-2.979-1.404-6.567-2.086-10.785-2.086-5.268,0-9.457,1.489-12.587,4.488-3.121,2.984-4.691,6.997-4.691,11.981,0,5.746,2.279,10.014,6.809,12.801,4.553,2.774,11.537,4.164,20.974,4.164h6.96v0.686c0,2.842-1.078,5.016-3.253,6.52-2.156,1.514-5.33,2.28-9.472,2.28-2.028,0-4.368-0.355-6.955-1.083-2.6-0.728-5.399-1.779-8.379-3.169l-0.302,11.735c2.889,1.212,6.023,2.129,9.39,2.711,3.367,0.591,7.083,0.888,11.13,0.888,8.484,0,14.711-2.11,18.668-6.337,3.952-4.235,5.943-10.859,5.943-19.91v0.024zm41.742,13.14c-3.512,0-6.318-1.244-8.384-3.75-2.078-2.482-3.11-5.899-3.11-10.175,0-4.364,0.983-7.793,2.954-10.26,1.974-2.468,4.687-3.706,8.133-3.706,3.268,0,5.858,1.214,7.807,3.626,1.93,2.426,2.903,5.666,2.903,9.693,0,4.356-0.964,7.868-2.879,10.545-1.944,2.69-4.411,4.03-7.424,4.03zm-29.311,35.456h17.817v-31.009c2.061,2.872,4.507,5.028,7.316,6.442,2.804,1.414,6.065,2.122,9.754,2.122,6.97,0,12.531-2.402,16.687-7.221,4.154-4.819,6.245-11.295,6.245-19.413,0-8.218-2.137-14.848-6.415-19.907-4.281-5.05-9.851-7.571-16.726-7.571-4.103,0-7.754,0.966-10.968,2.862-3.203,1.896-5.821,4.68-7.822,8.335v-10.411h-15.888v75.776zm69.304-23.815h17.814v-51.956h-17.814v51.951zm0,23.815h17.814v-14.444h-17.814v14.444zm85.87-45.376v-30.394h-17.661v26.687c0,4.079-0.723,7.121-2.181,9.112-1.446,1.981-3.631,2.984-6.59,2.984-3.093,0-5.556-1.253-7.427-3.765-1.85-2.487-2.777-5.831-2.777-10.053v-24.964h-17.81v51.946h16.181v-9.335c2.042,3.49,4.68,6.147,7.907,7.973,3.21,1.825,6.836,2.743,10.883,2.743,6.347,0,11.178-1.957,14.492-5.843,3.31-3.91,4.99-9.61,4.99-17.1" fill="#222"/>
</g>
</g>
</svg>
